<svg xmlns="http://www.w3.org/2000/svg" viewBox="0 0 64 64" role="img" aria-label="Metal scrap">
  <g fill="none" stroke="#fff" stroke-width="4" stroke-linecap="round" stroke-linejoin="round">
    <path d="m28 10 7 4-5 8"/>
    <path d="M35 14h7c4 0 7 2 9 6l3 6"/>
    <path d="m55 27-1 8-9-1"/>
    <path d="m54 35-4 7c-2 4-5 6-10 6h-7"/>
    <path d="m31 54-7-4 5-8"/>
    <path d="M24 50h-8c-4 0-7-2-9-6l-3-6"/>
    <path d="m4 36 1-8 9 1"/>
    <path d="m6 28 5-8c2-4 5-6 10-6h7"/>
    <path d="m21 26 8-5 8 5-3 7 7 5-6 8-8-4-7 4-5-8 6-5Z"/>
  </g>
</svg>
