<svg xmlns="http://www.w3.org/2000/svg" viewBox="0 0 600 420" width="600" height="420">
  <defs>
    <linearGradient id="bg" x1="0" y1="0" x2="1" y2="1"><stop offset="0" stop-color="#111719"/><stop offset="1" stop-color="#050708"/></linearGradient>
    <linearGradient id="steel" x1="0" y1="0" x2="1" y2="1"><stop offset="0" stop-color="#f8fbff"/><stop offset="0.25" stop-color="#9fa8ad"/><stop offset="0.55" stop-color="#3b464c"/><stop offset="0.78" stop-color="#dfe5e8"/><stop offset="1" stop-color="#68727a"/></linearGradient>
    <linearGradient id="steel2" x1="0" y1="0" x2="1" y2="0"><stop offset="0" stop-color="#2f3b40"/><stop offset="0.45" stop-color="#d8dee2"/><stop offset="0.7" stop-color="#515c62"/><stop offset="1" stop-color="#101416"/></linearGradient>
    <filter id="shadow" x="-20%" y="-20%" width="140%" height="140%"><feDropShadow dx="0" dy="16" stdDeviation="14" flood-color="#000" flood-opacity="0.45"/></filter>
    <pattern id="grid" width="34" height="34" patternUnits="userSpaceOnUse"><path d="M 34 0 L 0 0 0 34" fill="none" stroke="#d59600" stroke-width="0.6" opacity="0.12"/></pattern>
  </defs>
  <rect width="600" height="420" rx="28" fill="url(#bg)"/>
  <rect width="600" height="420" rx="28" fill="url(#grid)" opacity="0.55"/>
  <circle cx="510" cy="45" r="125" fill="#d59600" opacity="0.13"/>
  <path d="M0,340 C150,290 255,390 420,320 C510,282 550,295 600,274 L600,420 L0,420 Z" fill="#d59600" opacity="0.09"/>
  <g filter="url(#shadow)">
<g transform="translate(55 90)">
  <rect x="72" y="45" width="410" height="18" rx="9" fill="#636d73"/>
<path d="M82 40 L102 68" stroke="#d6dde1" stroke-width="5" opacity=".75"/>
<path d="M120 40 L140 68" stroke="#d6dde1" stroke-width="5" opacity=".75"/>
<path d="M158 40 L178 68" stroke="#d6dde1" stroke-width="5" opacity=".75"/>
<path d="M196 40 L216 68" stroke="#d6dde1" stroke-width="5" opacity=".75"/>
<path d="M234 40 L254 68" stroke="#d6dde1" stroke-width="5" opacity=".75"/>
<path d="M272 40 L292 68" stroke="#d6dde1" stroke-width="5" opacity=".75"/>
<path d="M310 40 L330 68" stroke="#d6dde1" stroke-width="5" opacity=".75"/>
<path d="M348 40 L368 68" stroke="#d6dde1" stroke-width="5" opacity=".75"/>
<path d="M386 40 L406 68" stroke="#d6dde1" stroke-width="5" opacity=".75"/>
<path d="M424 40 L444 68" stroke="#d6dde1" stroke-width="5" opacity=".75"/>
<path d="M462 40 L482 68" stroke="#d6dde1" stroke-width="5" opacity=".75"/>
<rect x="72" y="85" width="410" height="18" rx="9" fill="#636d73"/>
<path d="M82 80 L102 108" stroke="#d6dde1" stroke-width="5" opacity=".75"/>
<path d="M120 80 L140 108" stroke="#d6dde1" stroke-width="5" opacity=".75"/>
<path d="M158 80 L178 108" stroke="#d6dde1" stroke-width="5" opacity=".75"/>
<path d="M196 80 L216 108" stroke="#d6dde1" stroke-width="5" opacity=".75"/>
<path d="M234 80 L254 108" stroke="#d6dde1" stroke-width="5" opacity=".75"/>
<path d="M272 80 L292 108" stroke="#d6dde1" stroke-width="5" opacity=".75"/>
<path d="M310 80 L330 108" stroke="#d6dde1" stroke-width="5" opacity=".75"/>
<path d="M348 80 L368 108" stroke="#d6dde1" stroke-width="5" opacity=".75"/>
<path d="M386 80 L406 108" stroke="#d6dde1" stroke-width="5" opacity=".75"/>
<path d="M424 80 L444 108" stroke="#d6dde1" stroke-width="5" opacity=".75"/>
<path d="M462 80 L482 108" stroke="#d6dde1" stroke-width="5" opacity=".75"/>
<rect x="72" y="125" width="410" height="18" rx="9" fill="#636d73"/>
<path d="M82 120 L102 148" stroke="#d6dde1" stroke-width="5" opacity=".75"/>
<path d="M120 120 L140 148" stroke="#d6dde1" stroke-width="5" opacity=".75"/>
<path d="M158 120 L178 148" stroke="#d6dde1" stroke-width="5" opacity=".75"/>
<path d="M196 120 L216 148" stroke="#d6dde1" stroke-width="5" opacity=".75"/>
<path d="M234 120 L254 148" stroke="#d6dde1" stroke-width="5" opacity=".75"/>
<path d="M272 120 L292 148" stroke="#d6dde1" stroke-width="5" opacity=".75"/>
<path d="M310 120 L330 148" stroke="#d6dde1" stroke-width="5" opacity=".75"/>
<path d="M348 120 L368 148" stroke="#d6dde1" stroke-width="5" opacity=".75"/>
<path d="M386 120 L406 148" stroke="#d6dde1" stroke-width="5" opacity=".75"/>
<path d="M424 120 L444 148" stroke="#d6dde1" stroke-width="5" opacity=".75"/>
<path d="M462 120 L482 148" stroke="#d6dde1" stroke-width="5" opacity=".75"/>
<rect x="72" y="165" width="410" height="18" rx="9" fill="#636d73"/>
<path d="M82 160 L102 188" stroke="#d6dde1" stroke-width="5" opacity=".75"/>
<path d="M120 160 L140 188" stroke="#d6dde1" stroke-width="5" opacity=".75"/>
<path d="M158 160 L178 188" stroke="#d6dde1" stroke-width="5" opacity=".75"/>
<path d="M196 160 L216 188" stroke="#d6dde1" stroke-width="5" opacity=".75"/>
<path d="M234 160 L254 188" stroke="#d6dde1" stroke-width="5" opacity=".75"/>
<path d="M272 160 L292 188" stroke="#d6dde1" stroke-width="5" opacity=".75"/>
<path d="M310 160 L330 188" stroke="#d6dde1" stroke-width="5" opacity=".75"/>
<path d="M348 160 L368 188" stroke="#d6dde1" stroke-width="5" opacity=".75"/>
<path d="M386 160 L406 188" stroke="#d6dde1" stroke-width="5" opacity=".75"/>
<path d="M424 160 L444 188" stroke="#d6dde1" stroke-width="5" opacity=".75"/>
<path d="M462 160 L482 188" stroke="#d6dde1" stroke-width="5" opacity=".75"/>
<rect x="72" y="205" width="410" height="18" rx="9" fill="#636d73"/>
<path d="M82 200 L102 228" stroke="#d6dde1" stroke-width="5" opacity=".75"/>
<path d="M120 200 L140 228" stroke="#d6dde1" stroke-width="5" opacity=".75"/>
<path d="M158 200 L178 228" stroke="#d6dde1" stroke-width="5" opacity=".75"/>
<path d="M196 200 L216 228" stroke="#d6dde1" stroke-width="5" opacity=".75"/>
<path d="M234 200 L254 228" stroke="#d6dde1" stroke-width="5" opacity=".75"/>
<path d="M272 200 L292 228" stroke="#d6dde1" stroke-width="5" opacity=".75"/>
<path d="M310 200 L330 228" stroke="#d6dde1" stroke-width="5" opacity=".75"/>
<path d="M348 200 L368 228" stroke="#d6dde1" stroke-width="5" opacity=".75"/>
<path d="M386 200 L406 228" stroke="#d6dde1" stroke-width="5" opacity=".75"/>
<path d="M424 200 L444 228" stroke="#d6dde1" stroke-width="5" opacity=".75"/>
<path d="M462 200 L482 228" stroke="#d6dde1" stroke-width="5" opacity=".75"/>
</g></g>
  <text x="300" y="386" text-anchor="middle" font-family="Arial, sans-serif" font-size="30" font-weight="800" fill="#d59600">TMT BARS</text>
</svg>