<svg xmlns="http://www.w3.org/2000/svg" viewBox="0 0 600 420" width="600" height="420">
  <defs>
    <linearGradient id="bg" x1="0" y1="0" x2="1" y2="1"><stop offset="0" stop-color="#111719"/><stop offset="1" stop-color="#050708"/></linearGradient>
    <linearGradient id="steel" x1="0" y1="0" x2="1" y2="1"><stop offset="0" stop-color="#f8fbff"/><stop offset="0.25" stop-color="#9fa8ad"/><stop offset="0.55" stop-color="#3b464c"/><stop offset="0.78" stop-color="#dfe5e8"/><stop offset="1" stop-color="#68727a"/></linearGradient>
    <linearGradient id="steel2" x1="0" y1="0" x2="1" y2="0"><stop offset="0" stop-color="#2f3b40"/><stop offset="0.45" stop-color="#d8dee2"/><stop offset="0.7" stop-color="#515c62"/><stop offset="1" stop-color="#101416"/></linearGradient>
    <filter id="shadow" x="-20%" y="-20%" width="140%" height="140%"><feDropShadow dx="0" dy="16" stdDeviation="14" flood-color="#000" flood-opacity="0.45"/></filter>
    <pattern id="grid" width="34" height="34" patternUnits="userSpaceOnUse"><path d="M 34 0 L 0 0 0 34" fill="none" stroke="#d59600" stroke-width="0.6" opacity="0.12"/></pattern>
  </defs>
  <rect width="600" height="420" rx="28" fill="url(#bg)"/>
  <rect width="600" height="420" rx="28" fill="url(#grid)" opacity="0.55"/>
  <circle cx="510" cy="45" r="125" fill="#d59600" opacity="0.13"/>
  <path d="M0,340 C150,290 255,390 420,320 C510,282 550,295 600,274 L600,420 L0,420 Z" fill="#d59600" opacity="0.09"/>
  <g filter="url(#shadow)">
<g transform="translate(95 72)">
  <path d="M50 230 L160 40 L215 40 L105 230 Z" fill="url(#steel)"/>
  <path d="M105 230 L360 230 L410 178 L160 178 Z" fill="#707b82"/>
  <path d="M185 230 L295 40 L350 40 L240 230 Z" fill="url(#steel)" opacity=".9"/>
  <path d="M240 230 L455 230 L505 178 L295 178 Z" fill="#68747b" opacity=".95"/>
</g></g>
  <text x="300" y="386" text-anchor="middle" font-family="Arial, sans-serif" font-size="30" font-weight="800" fill="#d59600">ANGLES</text>
</svg>