<svg xmlns="http://www.w3.org/2000/svg" viewBox="0 0 1200 720" width="1200" height="720" role="img" aria-label="Channels and Beams">
<defs>
<linearGradient id="bg" x1="0" x2="1"><stop offset="0" stop-color="#0b1114"/><stop offset=".65" stop-color="#1b2328"/><stop offset="1" stop-color="#33220a"/></linearGradient>
<linearGradient id="metal" x1="0" x2="1"><stop offset="0" stop-color="#6f7478"/><stop offset=".20" stop-color="#f1f4f5"/><stop offset=".42" stop-color="#8d969b"/><stop offset=".62" stop-color="#e4e8ea"/><stop offset="1" stop-color="#464d52"/></linearGradient>
<linearGradient id="darkmetal" x1="0" x2="1"><stop offset="0" stop-color="#252b2e"/><stop offset=".5" stop-color="#aeb8bd"/><stop offset="1" stop-color="#151a1d"/></linearGradient>
<linearGradient id="edge" x1="0" x2="0" y1="0" y2="1"><stop offset="0" stop-color="#cbd1d4"/><stop offset="1" stop-color="#42494d"/></linearGradient>
<radialGradient id="hole"><stop offset="0" stop-color="#050708"/><stop offset=".55" stop-color="#0d1113"/><stop offset="1" stop-color="#5e676c"/></radialGradient>
<filter id="shadow" x="-20%" y="-20%" width="140%" height="140%"><feDropShadow dx="0" dy="10" stdDeviation="9" flood-color="#000" flood-opacity=".45"/></filter>
</defs>
<rect width="1200" height="720" fill="url(#bg)"/>
<path d="M0 640 C230 530 350 720 610 610 C830 520 900 360 1200 445 L1200 720 L0 720 Z" fill="#d59600" opacity=".20"/>
<g opacity=".14" stroke="#f5b31a" stroke-width="2"><line x1="0" y1="0" x2="-160" y2="720"/><line x1="90" y1="0" x2="-70" y2="720"/><line x1="180" y1="0" x2="20" y2="720"/><line x1="270" y1="0" x2="110" y2="720"/><line x1="360" y1="0" x2="200" y2="720"/><line x1="450" y1="0" x2="290" y2="720"/><line x1="540" y1="0" x2="380" y2="720"/><line x1="630" y1="0" x2="470" y2="720"/><line x1="720" y1="0" x2="560" y2="720"/><line x1="810" y1="0" x2="650" y2="720"/><line x1="900" y1="0" x2="740" y2="720"/><line x1="990" y1="0" x2="830" y2="720"/><line x1="1080" y1="0" x2="920" y2="720"/><line x1="1170" y1="0" x2="1010" y2="720"/><line x1="1260" y1="0" x2="1100" y2="720"/><line x1="1350" y1="0" x2="1190" y2="720"/></g>
<g filter="url(#shadow)" transform="translate(130,105)">
<g transform="translate(0,0)"><polygon points="120,80 930,80 1040,145 230,145" fill="#cdd4d7"/><polygon points="230,145 1040,145 1040,220 230,220" fill="#4d585f"/><polygon points="120,80 230,145 230,220 120,150" fill="#252c30"/><polygon points="475,220 610,220 610,440 475,440" fill="url(#metal)"/><polygon points="360,440 820,440 920,505 460,505" fill="#d9dee0"/><polygon points="460,505 920,505 920,585 460,585" fill="#4a555b"/><polygon points="360,440 460,505 460,585 360,515" fill="#22292e"/></g>
<g transform="translate(100,40) scale(.72)" opacity=".92"><path d="M650 80 L1000 80 L1050 130 L700 130 Z" fill="#b5bdc1"/><path d="M700 130 L1050 130 L1050 190 L700 190 Z" fill="#3f4a50"/><path d="M650 80 L700 130 L700 190 L650 140 Z" fill="#1e2529"/><path d="M740 190 L840 190 L840 470 L740 470 Z" fill="#8f9aa0"/><path d="M600 470 L1000 470 L1050 520 L650 520 Z" fill="#c2c9cd"/><path d="M650 520 L1050 520 L1050 590 L650 590 Z" fill="#3f4a50"/></g>
</g>
<rect x="0" y="0" width="1200" height="720" fill="none" stroke="#d59600" stroke-opacity=".35" stroke-width="3"/>
</svg>